<svg width="144" height="181" viewBox="0 0 144 181" fill="none" xmlns="http://www.w3.org/2000/svg">
<path d="M59.2715 52V21.974C59.2715 13.3394 69.3995 8.68116 75.9554 14.3005L138.28 67.7212C140.52 69.6413 141.809 72.4444 141.809 75.3947V154.583C141.809 163.268 131.579 167.908 125.044 162.187L86 128" stroke="white" stroke-width="3.36887"/>
<path d="M2 95.1346V25.2668C2 16.6622 12.0928 12.0201 18.626 17.62L81.0081 71.0904C83.2482 73.0104 84.5374 75.8135 84.5374 78.7639V156.187C84.5374 165.141 73.7547 169.672 67.3584 163.407L5.03421 102.354C3.09361 100.453 2 97.8512 2 95.1346Z" stroke="white" stroke-width="3.36887"/>
<path d="M15.4746 64.0098L23.7865 90.1328C25.6325 95.9345 32.1512 98.7991 37.6734 96.2352L74.4299 79.1697" stroke="#F9FAFF" stroke-width="10.1066"/>
</svg>
